<svg width="767" height="143" viewBox="0 0 767 143" fill="none" xmlns="http://www.w3.org/2000/svg">
<rect width="767" height="143" rx="71.5" fill="#F6F5F2"/>
<path d="M100.232 50.2184C100.232 58.2191 87.3986 56.5521 81.2319 57.2188C66.7319 58.7863 67.2319 84.2188 82.7319 84.2188C88.7319 85.7188 100.232 76.7188 101.732 88.7188C102.786 97.1531 85.7319 103.718 71.2319 100.218C38.2319 90.2184 52.2319 42.2189 79.2319 40.2184C97.0297 38.8997 100.232 43.7184 100.232 50.2184Z" fill="#222222"/>
<path d="M601.232 52.2184C601.232 60.2191 588.399 58.5521 582.232 59.2188C567.732 60.7863 568.232 86.2188 583.732 86.2188C589.732 87.7188 601.232 78.7188 602.732 90.7188C603.786 99.1531 586.732 105.718 572.232 102.218C539.232 92.2184 553.232 44.2189 580.232 42.2184C598.03 40.8997 601.232 45.7184 601.232 52.2184Z" fill="#222222"/>
<path fill-rule="evenodd" clip-rule="evenodd" d="M109 47V93.2691C109 96.2668 111.208 98.8143 114.179 99.2138C132.412 101.666 157.77 103.837 160.5 82C161.87 71.0422 151.566 64.9485 148.243 66.3838C155.58 59.6868 156.477 40 137.5 40H115.997C112.131 40 109 43.134 109 47ZM135.5 53.0001V62.0001C135.676 62.0001 135.858 62.003 136.042 62.0059H136.042H136.042C138.294 62.0414 141 62.0841 141 57C141 52.0523 136.833 52.0001 135.5 53.0001ZM135.5 76.0003V84.5003C137.333 85.167 141 85.6 141 80C141 74.4 137.333 74.8337 135.5 76.0003Z" fill="#222222"/>
<path fill-rule="evenodd" clip-rule="evenodd" d="M662 48V94.2691C662 97.2668 664.208 99.8143 667.179 100.214C685.412 102.666 710.77 104.837 713.5 83C714.87 72.0422 704.566 65.9485 701.243 67.3838C708.58 60.6868 709.477 41 690.5 41H668.997C665.131 41 662 44.134 662 48ZM688.5 54.0001V63.0001C688.676 63.0001 688.858 63.003 689.042 63.0059H689.042H689.042C691.294 63.0414 694 63.0841 694 58C694 53.0523 689.833 53.0001 688.5 54.0001ZM688.5 77.0003V85.5003C690.333 86.167 694 86.6 694 81C694 75.4 690.333 75.8337 688.5 77.0003Z" fill="#222222"/>
<path fill-rule="evenodd" clip-rule="evenodd" d="M496 47V93.2691C496 96.2668 498.208 98.8143 501.179 99.2138C519.412 101.666 544.77 103.837 547.5 82C548.87 71.0422 538.566 64.9485 535.243 66.3838C542.58 59.6868 543.477 40 524.5 40H502.997C499.131 40 496 43.134 496 47ZM522.5 53.0001V62.0001C522.676 62.0001 522.858 62.003 523.042 62.0059H523.042H523.042C525.294 62.0414 528 62.0841 528 57C528 52.0523 523.833 52.0001 522.5 53.0001ZM522.5 76.0003V84.5003C524.333 85.167 528 85.6 528 80C528 74.4 524.333 74.8337 522.5 76.0003Z" fill="#222222"/>
<path fill-rule="evenodd" clip-rule="evenodd" d="M217.623 45V95C217.623 97.7614 215.384 100 212.623 100H194.625C192.522 100 190.644 98.6847 189.926 96.7088L187.853 91.0096C187.563 90.2123 186.458 90.1019 185.981 90.8035C182.235 96.3133 174.348 104.584 168.623 98.5C162.638 92.1413 169.012 82.9554 173.68 78.3829C174.147 77.9251 174.088 77.1443 173.569 76.7456C159.83 66.1879 164.286 40 191.123 40H212.623C215.384 40 217.623 42.2386 217.623 45ZM182.122 62.5C182.122 58.48 185.289 57.5 187.122 57.5V67.5C185.622 67.5 182.122 67 182.122 62.5Z" fill="#222222"/>
<path d="M245.069 40.1332C229.112 41.5516 224.926 51.6334 225.569 54.6333C226.069 56.9667 228.969 60.9334 236.569 58.1334C246.069 54.6333 254.569 60.9123 244.069 64.9123C233.569 68.9123 238.569 77.4124 244.069 77.9124C253.57 78.776 254.07 85.1334 244.069 86.6334C237.569 87.6084 227.524 85.006 225.569 88.1334C223.069 92.1334 228.729 101.753 244.069 104.133C273.07 108.633 288.569 84.6338 270.069 70.6336C283.069 59.1336 267.569 38.1333 245.069 40.1332Z" fill="#222222"/>
<path fill-rule="evenodd" clip-rule="evenodd" d="M314.434 56.4517V44C314.434 41.7909 312.643 40 310.434 40H291C288.791 40 287 41.7909 287 44V98C287 100.209 288.791 102 291 102H314.434C343.378 102 339.951 57.5819 315.498 57.477C314.927 57.4745 314.434 57.0225 314.434 56.4517ZM314 74.4032V86.4032C316.667 86.9032 321 86.4034 321 79.9032C321 73.4534 316 73.5699 314 74.4032Z" fill="#222222"/>
<path d="M402 97.0195V89.5195C402 88.415 401.105 87.5195 400 87.5195H399C389.059 87.5195 381 79.4607 381 69.5195V48.5195C381 44.3774 384.358 41.0195 388.5 41.0195C392.642 41.0195 396 44.3774 396 48.5195V67.7468C396 69.5543 397.465 71.0195 399.273 71.0195C400.779 71.0195 402 69.7985 402 68.2923V46.0195C402 43.2581 404.239 41.0195 407 41.0195H426C428.761 41.0195 431 43.2581 431 46.0195V97.0195C431 99.2287 429.209 101.02 427 101.02H406C403.791 101.02 402 99.2287 402 97.0195Z" fill="#222222"/>
<path d="M459.095 41.1542H443.685C439.488 41.1542 436.588 45.3521 438.073 49.2773L455 94.0198V95.6166C455 102.898 464.883 105.424 468.312 99.0001C481.246 74.7644 495.649 45.2397 488.5 41.1542C480 36.2969 472.167 47.9879 469.5 53.6545L465.406 45.1252C464.241 42.6981 461.787 41.1542 459.095 41.1542Z" fill="#222222"/>
<path d="M617.5 98.5V59.4545C617.5 58.9274 617.073 58.5 616.545 58.5H615.75C610.918 58.5 607 54.5825 607 49.75C607 44.9175 610.918 41 615.75 41H648.25C653.082 41 657 44.9747 657 49.8072C657 54.5769 653.133 58.5 648.364 58.5C647.887 58.5 647.5 58.8867 647.5 59.3636V98.5C647.5 100.709 645.709 102.5 643.5 102.5H621.5C619.291 102.5 617.5 100.709 617.5 98.5Z" fill="#222222"/>
</svg>
