<svg width="221" height="49" viewBox="0 0 221 49" fill="none" xmlns="http://www.w3.org/2000/svg">
<path d="M219.701 8.45461C219.701 14.7318 209.647 13.4239 204.815 13.9469C193.455 15.1768 193.847 35.1305 205.991 35.1305C210.691 36.3074 219.701 29.2462 220.877 38.6611C221.703 45.2785 208.341 50.4292 196.981 47.6835C171.126 39.8377 182.095 2.1784 203.248 0.608836C217.193 -0.425784 219.701 3.35486 219.701 8.45461Z" fill="#222222"/>
<path fill-rule="evenodd" clip-rule="evenodd" d="M23.8281 48.4375C36.988 48.4375 47.6562 37.5944 47.6562 24.2188C47.6562 10.8431 36.988 0 23.8281 0C10.6682 0 0 10.8431 0 24.2188C0 37.5944 10.6682 48.4375 23.8281 48.4375ZM24.2188 14.0625C22.9243 14.0625 21.875 15.1118 21.875 16.4062V32.0312C21.875 33.3257 22.9243 34.375 24.2188 34.375C25.5132 34.375 26.5625 33.3257 26.5625 32.0312V16.4062C26.5625 15.1118 25.5132 14.0625 24.2188 14.0625Z" fill="#222222"/>
<path d="M100.656 10.4375V15.7962C100.656 17.0906 101.706 18.14 103 18.14C104.294 18.14 105.344 17.0906 105.344 15.7962V10.4375C105.344 5.46694 109.373 1.4375 114.344 1.4375H119C123.971 1.4375 128 5.46694 128 10.4375V39.4375C128 44.4081 123.971 48.4375 119 48.4375H114.344C109.373 48.4375 105.344 44.4081 105.344 39.4375V32.1366C105.344 30.8422 104.294 29.7929 103 29.7929C101.706 29.7929 100.656 30.8422 100.656 32.1366V39.4375C100.656 44.4081 96.6268 48.4375 91.6563 48.4375H87C82.0294 48.4375 78 44.4081 78 39.4375V10.4375C78 5.46694 82.0294 1.4375 87 1.4375H91.6562C96.6268 1.4375 100.656 5.46694 100.656 10.4375Z" fill="#222222"/>
<path fill-rule="evenodd" clip-rule="evenodd" d="M144.094 44.9695C142.018 47.6189 138.318 49.3845 134.148 46.5312C127.975 42.3077 140.468 19.0057 147.311 6.24267C147.573 5.75473 147.826 5.2822 148.07 4.82672C149.127 2.85097 151.179 1.60938 153.42 1.60938H158.962C160.507 1.60938 161.914 2.49884 162.576 3.8944L176.586 33.4157C179.735 40.0507 174.896 47.7031 167.552 47.7031H161.021C159.33 47.7031 157.718 46.99 156.581 45.7392L155.353 44.3882C154.785 43.7628 153.979 43.4062 153.133 43.4062H146.939C145.803 43.4062 144.795 44.0751 144.094 44.9695ZM150.726 36.375H149.297C148.589 36.375 148.105 35.6605 148.368 35.0036L149.797 31.4306C150.206 30.4083 151.726 30.7009 151.726 31.802V35.375C151.726 35.9273 151.278 36.375 150.726 36.375Z" fill="#222222"/>
</svg>
