<svg width="339" height="49" viewBox="0 0 339 49" fill="none" xmlns="http://www.w3.org/2000/svg">
<path d="M254.4 44V14.4222C254.4 14.0004 254.058 13.6585 253.636 13.6585H252.829C249.058 13.6585 246 10.601 246 6.82927C246 3.05757 249.058 0 252.829 0H279.171C282.942 0 286 3.05757 286 6.82927C286 10.601 282.942 13.6585 279.171 13.6585H279.091C278.709 13.6585 278.4 13.9679 278.4 14.3494V44C278.4 46.2091 276.609 48 274.4 48H258.4C256.191 48 254.4 46.2091 254.4 44Z" fill="#222222"/>
<path fill-rule="evenodd" clip-rule="evenodd" d="M106 7V41.0046C106 44.0109 108.218 46.5676 111.201 46.9473C125.946 48.825 145.727 50.0958 147.899 33.2091C149.013 24.5449 140.63 19.7266 137.927 20.8615C143.896 15.5662 144.626 0 129.187 0H113C109.134 0 106 3.13401 106 7ZM127.559 10.2791V17.3954C127.703 17.3954 127.851 17.3976 128 17.3999C129.833 17.428 132.034 17.4618 132.034 13.4418C132.034 9.52966 128.644 9.48842 127.559 10.2791ZM127.559 28.4652V35.1861C129.051 35.7132 132.034 36.0556 132.034 31.6277C132.034 27.1999 129.051 27.5427 127.559 28.4652Z" fill="#222222"/>
<path d="M240.788 8.01711C240.788 14.2943 230.734 12.9864 225.902 13.5094C214.542 14.7393 214.934 34.693 227.078 34.693C231.778 35.8699 240.788 28.8087 241.964 38.2236C242.79 44.841 229.428 49.9917 218.068 47.246C192.213 39.4002 203.182 1.7409 224.335 0.171336C238.279 -0.863284 240.788 2.91736 240.788 8.01711Z" fill="#222222"/>
<path fill-rule="evenodd" clip-rule="evenodd" d="M77.8281 48.4375C90.988 48.4375 101.656 37.5944 101.656 24.2188C101.656 10.8431 90.988 0 77.8281 0C64.6682 0 54 10.8431 54 24.2188C54 37.5944 64.6682 48.4375 77.8281 48.4375ZM78.2188 14.0625C76.9243 14.0625 75.875 15.1118 75.875 16.4062V32.0312C75.875 33.3257 76.9243 34.375 78.2188 34.375C79.5132 34.375 80.5625 33.3257 80.5625 32.0312V16.4062C80.5625 15.1118 79.5132 14.0625 78.2188 14.0625Z" fill="#222222"/>
<path fill-rule="evenodd" clip-rule="evenodd" d="M174.828 48.4375C187.988 48.4375 198.656 37.5944 198.656 24.2188C198.656 10.8431 187.988 0 174.828 0C161.668 0 151 10.8431 151 24.2188C151 37.5944 161.668 48.4375 174.828 48.4375ZM175.219 14.0625C173.924 14.0625 172.875 15.1118 172.875 16.4062V32.0312C172.875 33.3257 173.924 34.375 175.219 34.375C176.513 34.375 177.562 33.3257 177.562 32.0312V16.4062C177.562 15.1118 176.513 14.0625 175.219 14.0625Z" fill="#222222"/>
<path d="M22.6562 9V14.3587C22.6562 15.6531 23.7056 16.7025 25 16.7025C26.2944 16.7025 27.3438 15.6531 27.3438 14.3587V9C27.3438 4.02944 31.3732 0 36.3438 0H41C45.9706 0 50 4.02944 50 9V38C50 42.9706 45.9706 47 41 47H36.3438C31.3732 47 27.3438 42.9706 27.3438 38V30.6991C27.3438 29.4047 26.2944 28.3554 25 28.3554C23.7056 28.3554 22.6562 29.4047 22.6562 30.6991V38C22.6562 42.9706 18.6268 47 13.6563 47H9C4.02944 47 0 42.9706 0 38V9C0 4.02944 4.02944 0 9 0H13.6562C18.6268 0 22.6562 4.02944 22.6562 9Z" fill="#222222"/>
<path d="M298.5 0H307.958C310.167 0 311.958 1.79086 311.958 4V12.2582C311.958 13.2397 313.224 13.6338 313.781 12.8258L321.429 1.72991C322.176 0.646799 323.407 0 324.723 0H334.5C336.709 0 338.5 1.79086 338.5 4V44C338.5 46.2091 336.709 48 334.5 48H322.672C320.463 48 318.672 46.2091 318.672 44V38.0509C318.672 37.1175 317.507 36.693 316.907 37.4076L309.207 46.5729C308.447 47.4776 307.326 48 306.145 48H298.5C296.291 48 294.5 46.2091 294.5 44V4C294.5 1.79086 296.291 0 298.5 0Z" fill="#222222"/>
</svg>
