<svg width="399" height="52" viewBox="0 0 399 52" fill="none" xmlns="http://www.w3.org/2000/svg">
<path d="M165.4 48V18.4222C165.4 18.0004 165.058 17.6585 164.636 17.6585H163.829C160.058 17.6585 157 14.601 157 10.8293C157 7.05757 160.058 4 163.829 4H190.171C193.942 4 197 7.05757 197 10.8293C197 14.601 193.942 17.6585 190.171 17.6585H190.091C189.709 17.6585 189.4 17.9679 189.4 18.3494V48C189.4 50.2091 187.609 52 185.4 52H169.4C167.191 52 165.4 50.2091 165.4 48Z" fill="#222222"/>
<path d="M309.4 48V18.4222C309.4 18.0004 309.058 17.6585 308.636 17.6585H307.829C304.058 17.6585 301 14.601 301 10.8293C301 7.05757 304.058 4 307.829 4H334.171C337.942 4 341 7.05757 341 10.8293C341 14.601 337.942 17.6585 334.171 17.6585H334.091C333.709 17.6585 333.4 17.9679 333.4 18.3494V48C333.4 50.2091 331.609 52 329.4 52H313.4C311.191 52 309.4 50.2091 309.4 48Z" fill="#222222"/>
<path fill-rule="evenodd" clip-rule="evenodd" d="M212.055 48.8218C209.914 51.5918 206.064 53.4602 201.722 50.4891C195.334 46.1182 208.263 22.0032 215.345 8.79493C215.638 8.24892 215.92 7.72154 216.191 7.21497C217.248 5.23907 219.299 4 221.54 4H227.491C229.035 4 230.442 4.88947 231.104 6.28502L245.877 37.4144C249.026 44.0494 244.188 51.7018 236.843 51.7018H229.44C227.75 51.7018 226.138 50.9887 225 49.7379L223.636 48.237C223.067 47.6116 222.261 47.2551 221.416 47.2551H214.895C213.759 47.2551 212.75 47.9227 212.055 48.8218ZM218.913 39.9785H217.348C216.64 39.9785 216.157 39.264 216.419 38.6071L217.985 34.6934C218.394 33.6711 219.913 33.9637 219.913 35.0648V38.9785C219.913 39.5308 219.466 39.9785 218.913 39.9785Z" fill="#222222"/>
<path fill-rule="evenodd" clip-rule="evenodd" d="M72.8281 51.4375C85.988 51.4375 96.6562 40.5944 96.6562 27.2188C96.6562 13.8431 85.988 3 72.8281 3C59.6682 3 49 13.8431 49 27.2188C49 40.5944 59.6682 51.4375 72.8281 51.4375ZM73.2188 17.0625C71.9243 17.0625 70.875 18.1118 70.875 19.4062V35.0312C70.875 36.3257 71.9243 37.375 73.2188 37.375C74.5132 37.375 75.5625 36.3257 75.5625 35.0312V19.4062C75.5625 18.1118 74.5132 17.0625 73.2188 17.0625Z" fill="#222222"/>
<path d="M124.656 13V18.3587C124.656 19.6531 125.706 20.7025 127 20.7025C128.294 20.7025 129.344 19.6531 129.344 18.3587V13C129.344 8.02944 133.373 4 138.344 4H143C147.971 4 152 8.02944 152 13V42C152 46.9706 147.971 51 143 51H138.344C133.373 51 129.344 46.9706 129.344 42V34.6991C129.344 33.4047 128.294 32.3554 127 32.3554C125.706 32.3554 124.656 33.4047 124.656 34.6991V42C124.656 46.9706 120.627 51 115.656 51H111C106.029 51 102 46.9706 102 42V13C102 8.02944 106.029 4 111 4H115.656C120.627 4 124.656 8.02944 124.656 13Z" fill="#222222"/>
<path d="M21.3525 7.32419V13.3629C21.3525 14.2417 22.4274 14.6678 23.0295 14.0277L32.3101 4.16039C34.5332 1.79677 38.1835 1.4967 40.7628 3.46556C43.6719 5.68622 44.0974 9.90377 41.6906 12.6608L34.6783 20.6937C34.4634 20.9398 34.4349 21.2974 34.6081 21.5744L46.3058 40.2899C49.2199 44.9522 45.868 51 40.3699 51H30.1475C29.175 51 28.2629 50.5286 27.7003 49.7353L23.1682 43.3443C22.6045 42.5493 21.3525 42.9481 21.3525 43.9227V47C21.3525 49.2091 19.5617 51 17.3525 51H4C1.79086 51 0 49.2091 0 47V7.32418C0 5.11504 1.79086 3.32418 4 3.32418H17.3525C19.5617 3.32418 21.3525 5.11505 21.3525 7.32419Z" fill="#222222"/>
<path d="M273.353 7.32419V13.3629C273.353 14.2417 274.427 14.6678 275.03 14.0277L284.31 4.16039C286.533 1.79677 290.184 1.4967 292.763 3.46556C295.672 5.68622 296.097 9.90377 293.691 12.6608L286.678 20.6937C286.463 20.9398 286.435 21.2974 286.608 21.5744L298.306 40.2899C301.22 44.9522 297.868 51 292.37 51H282.147C281.175 51 280.263 50.5286 279.7 49.7353L275.168 43.3443C274.604 42.5493 273.353 42.9481 273.353 43.9227V47C273.353 49.2091 271.562 51 269.353 51H256C253.791 51 252 49.2091 252 47V7.32418C252 5.11504 253.791 3.32418 256 3.32418H269.353C271.562 3.32418 273.353 5.11505 273.353 7.32419Z" fill="#222222"/>
<rect x="377.667" y="4" width="21" height="48" rx="4" fill="#222222"/>
<path fill-rule="evenodd" clip-rule="evenodd" d="M365.19 16.3731V8C365.19 5.79086 363.4 4 361.19 4H349C346.791 4 345 5.79086 345 8V48C345 50.2091 346.791 52 349 52H365.19C385.836 52 387.692 19.2278 366.165 17.3943C365.63 17.3488 365.19 16.9096 365.19 16.3731ZM365.19 30.7001V38.1214C365.19 38.6439 365.594 39.0869 366.115 39.0503C367.836 38.9293 370.143 38.0422 370.143 34.4761C370.143 30.8148 367.712 29.7903 365.979 29.814C365.513 29.8204 365.19 30.2344 365.19 30.7001Z" fill="#222222"/>
</svg>
