<svg width="343" height="49" viewBox="0 0 343 49" fill="none" xmlns="http://www.w3.org/2000/svg">
<path d="M211.498 0.100915C199.176 1.1753 195.943 8.81223 196.44 11.0847C196.826 12.8522 199.065 15.857 204.934 13.7359C212.27 11.0847 218.834 15.841 210.726 18.871C202.618 21.901 206.479 28.3397 210.726 28.7184C218.062 29.3726 218.448 34.1883 210.726 35.3245C205.706 36.0631 197.949 34.0918 196.439 36.4608C194.509 39.4908 198.879 46.7776 210.726 48.5807C233.121 51.9894 245.09 33.8098 230.804 23.2048C240.843 14.4936 228.873 -1.414 211.498 0.100915Z" fill="#222222"/>
<path fill-rule="evenodd" clip-rule="evenodd" d="M156.055 45.8218C153.914 48.5918 150.064 50.4602 145.722 47.4891C139.334 43.1182 152.263 19.0032 159.345 5.79493C159.638 5.24892 159.92 4.72154 160.191 4.21497C161.248 2.23907 163.299 1 165.54 1H171.491C173.035 1 174.442 1.88947 175.104 3.28502L189.877 34.4144C193.026 41.0494 188.188 48.7018 180.843 48.7018H173.44C171.75 48.7018 170.138 47.9887 169 46.7379L167.636 45.237C167.067 44.6116 166.261 44.2551 165.416 44.2551H158.895C157.759 44.2551 156.75 44.9227 156.055 45.8218ZM162.913 36.9785H161.348C160.64 36.9785 160.157 36.264 160.419 35.6071L161.985 31.6934C162.394 30.6711 163.913 30.9637 163.913 32.0648V35.9785C163.913 36.5308 163.466 36.9785 162.913 36.9785Z" fill="#222222"/>
<path fill-rule="evenodd" clip-rule="evenodd" d="M69.0548 45.8218C66.914 48.5918 63.0644 50.4602 58.722 47.4891C52.3336 43.1182 65.263 19.0032 72.3448 5.79493C72.6375 5.24892 72.9203 4.72154 73.1913 4.21497C74.2483 2.23907 76.2988 1 78.5396 1H84.4905C86.0353 1 87.4419 1.88947 88.1042 3.28502L102.877 34.4144C106.026 41.0494 101.188 48.7018 93.8432 48.7018H86.44C84.7496 48.7018 83.1375 47.9887 82.0004 46.7379L80.636 45.237C80.0674 44.6116 79.2614 44.2551 78.4162 44.2551H71.895C70.7586 44.2551 69.7497 44.9227 69.0548 45.8218ZM75.9132 36.9785H74.3477C73.6403 36.9785 73.1565 36.264 73.4193 35.6071L74.9848 31.6934C75.3937 30.6711 76.9132 30.9637 76.9132 32.0648V35.9785C76.9132 36.5308 76.4655 36.9785 75.9132 36.9785Z" fill="#222222"/>
<path d="M314.562 9.00001V14.9757C314.562 16.3219 315.654 17.4132 317 17.4132C318.346 17.4132 319.438 16.3219 319.438 14.9757V9C319.438 4.02944 323.467 0 328.438 0H334C338.971 0 343 4.02944 343 9V40C343 44.9706 338.971 49 334 49H328.438C323.467 49 319.438 44.9706 319.438 40V31.9995C319.438 30.6533 318.346 29.562 317 29.562C315.654 29.562 314.562 30.6533 314.562 31.9995V40C314.562 44.9706 310.533 49 305.562 49H300C295.029 49 291 44.9706 291 40V9C291 4.02944 295.029 0 300 0H305.562C310.533 0 314.562 4.02944 314.562 9.00001Z" fill="#222222"/>
<path d="M246 1H255.458C257.667 1 259.458 2.79086 259.458 5V13.2582C259.458 14.2397 260.724 14.6338 261.281 13.8258L268.929 2.72991C269.676 1.6468 270.907 1 272.223 1H282C284.209 1 286 2.79086 286 5V45C286 47.2091 284.209 49 282 49H270.172C267.963 49 266.172 47.2091 266.172 45V39.0509C266.172 38.1175 265.007 37.693 264.407 38.4076L256.707 47.5729C255.947 48.4776 254.826 49 253.645 49H246C243.791 49 242 47.2091 242 45V5C242 2.79086 243.791 1 246 1Z" fill="#222222"/>
<path d="M131.759 45V15.0951C131.759 14.5809 132.175 14.1641 132.69 14.1641H134.918C138.829 14.1641 142 10.9933 142 7.08203C142 3.17073 138.829 0 134.918 0H113C110.791 0 109 1.79086 109 4V45C109 47.2091 110.791 49 113 49H127.759C129.968 49 131.759 47.2091 131.759 45Z" fill="#222222"/>
<path d="M10.3844 47.3286L14.12 39.766C14.4839 39.0294 15.5316 39.0215 15.9065 39.7527L18.4702 44.7537C19.4784 46.7203 22.1949 46.9588 23.5303 45.1977L27.8343 39.5217C28.3242 38.8758 29.3387 39.0505 29.5842 39.8231L31.8354 46.9084C32.2312 48.154 33.3877 49 34.6946 49H48C50.2091 49 52 47.2091 52 45V4C52 1.79086 50.2091 0 48 0H38.1236C36.7633 0 35.4962 0.691329 34.76 1.83521L27.1712 13.6265C26.2781 15.0142 24.1834 14.7841 23.6128 13.2356L19.6996 2.61688C19.1202 1.04452 17.6221 0 15.9464 0H4C1.79086 0 0 1.79086 0 4V45C0 47.2091 1.79086 49 4 49H7.69466C8.83622 49 9.87885 48.3521 10.3844 47.3286Z" fill="#222222"/>
</svg>
